<svg viewBox = "0 0 156 52" width="156" height="52" xmlns="http://www.w3.org/2000/svg"><g transform="matrix(1 0 0 1 78 26)"  ><g style=""   ><g transform="matrix(1 0 0 1 -10.21 -1.84)"  ><path style="stroke: none; stroke-width: 1; stroke-dasharray: none; stroke-linecap: butt; stroke-dashoffset: 0; stroke-linejoin: miter; stroke-miterlimit: 4; fill: rgb(50,56,66); fill-rule: nonzero; opacity: 1;"  transform=" translate(-67.79, -24.16)" d="M 66.7447 32.7936 L 75.5799 32.7936 C 75.5799 35.669 73.2489 38 70.3735 38 L 60 38 L 60 17.0559 C 60 13.3309 63.0197 10.3112 66.7447 10.3112 L 66.7447 32.7936 Z" stroke-linecap="round" /></g><g transform="matrix(1 0 0 1 9.92 1)"  ><path style="stroke: none; stroke-width: 1; stroke-dasharray: none; stroke-linecap: butt; stroke-dashoffset: 0; stroke-linejoin: miter; stroke-miterlimit: 4; fill: rgb(50,56,66); fill-rule: nonzero; opacity: 1;"  transform=" translate(-87.92, -27)" d="M 87.839 38.3155 C 85.6828 38.3155 83.7369 37.8554 82.0014 36.935 C 80.2923 36.0147 78.9381 34.7 77.9388 32.9908 C 76.9659 31.2816 76.4795 29.2831 76.4795 26.9955 C 76.4795 24.7341 76.9791 22.7488 77.9783 21.0396 C 78.9775 19.3041 80.3448 17.9762 82.0803 17.0559 C 83.8158 16.1355 85.7617 15.6754 87.9179 15.6754 C 90.0741 15.6754 92.0199 16.1355 93.7554 17.0559 C 95.4909 17.9762 96.8582 19.3041 97.8574 21.0396 C 98.8567 22.7488 99.3563 24.7341 99.3563 26.9955 C 99.3563 29.2568 98.8435 31.2553 97.818 32.9908 C 96.8188 34.7 95.4383 36.0147 93.6765 36.935 C 91.941 37.8554 89.9952 38.3155 87.839 38.3155 Z M 87.839 32.478 C 89.1274 32.478 90.2187 32.0047 91.1127 31.0581 C 92.0331 30.1114 92.4932 28.7572 92.4932 26.9955 C 92.4932 25.2337 92.0462 23.8795 91.1522 22.9329 C 90.2844 21.9862 89.2063 21.5129 87.9179 21.5129 C 86.6031 21.5129 85.5119 21.9862 84.6441 22.9329 C 83.7764 23.8532 83.3425 25.2074 83.3425 26.9955 C 83.3425 28.7572 83.7632 30.1114 84.6047 31.0581 C 85.4724 32.0047 86.5505 32.478 87.839 32.478 Z" stroke-linecap="round" /></g><g transform="matrix(1 0 0 1 35.11 6.26)"  ><path style="stroke: none; stroke-width: 1; stroke-dasharray: none; stroke-linecap: butt; stroke-dashoffset: 0; stroke-linejoin: miter; stroke-miterlimit: 4; fill: rgb(50,56,66); fill-rule: nonzero; opacity: 1;"  transform=" translate(-113.11, -32.26)" d="M 111.201 15.6754 C 112.753 15.6754 114.107 15.9909 115.264 16.622 C 116.447 17.2531 117.354 18.0814 117.985 19.1069 C 117.985 17.386 119.38 15.9909 121.101 15.9909 L 124.73 15.9909 L 124.73 37.9606 C 124.73 39.9853 124.322 41.8128 123.507 43.4431 C 122.718 45.0997 121.496 46.4145 119.839 47.3874 C 118.209 48.3603 116.171 48.8468 113.726 48.8468 C 110.465 48.8468 107.822 48.0711 105.798 46.5196 C 103.773 44.9945 102.616 42.9172 102.327 40.2877 L 108.992 40.2877 C 109.203 41.1291 109.702 41.7865 110.491 42.2598 C 111.28 42.7594 112.253 43.0092 113.41 43.0092 C 114.804 43.0092 115.908 42.6017 116.723 41.7865 C 117.565 40.9977 117.985 39.7223 117.985 37.9606 L 117.985 34.8446 C 117.328 35.8701 116.421 36.7115 115.264 37.3689 C 114.107 38 112.753 38.3155 111.201 38.3155 C 109.387 38.3155 107.743 37.8554 106.271 36.935 C 104.798 35.9884 103.628 34.6605 102.76 32.9513 C 101.919 31.2158 101.498 29.2174 101.498 26.956 C 101.498 24.6946 101.919 22.7093 102.76 21.0002 C 103.628 19.291 104.798 17.9762 106.271 17.0559 C 107.743 16.1355 109.387 15.6754 111.201 15.6754 Z M 117.985 26.9955 C 117.985 25.3126 117.512 23.9847 116.565 23.0117 C 115.645 22.0388 114.514 21.5524 113.173 21.5524 C 111.832 21.5524 110.688 22.0388 109.742 23.0117 C 108.821 23.9584 108.361 25.2731 108.361 26.956 C 108.361 28.6389 108.821 29.98 109.742 30.9792 C 110.688 31.9521 111.832 32.4386 113.173 32.4386 C 114.514 32.4386 115.645 31.9521 116.565 30.9792 C 117.512 30.0063 117.985 28.6784 117.985 26.9955 Z" stroke-linecap="round" /></g><g transform="matrix(1 0 0 1 60.44 1)"  ><path style="stroke: none; stroke-width: 1; stroke-dasharray: none; stroke-linecap: butt; stroke-dashoffset: 0; stroke-linejoin: miter; stroke-miterlimit: 4; fill: rgb(50,56,66); fill-rule: nonzero; opacity: 1;"  transform=" translate(-138.44, -27)" d="M 138.358 38.3155 C 136.202 38.3155 134.256 37.8554 132.52 36.935 C 130.811 36.0147 129.457 34.7 128.458 32.9908 C 127.485 31.2816 126.998 29.2831 126.998 26.9955 C 126.998 24.7341 127.498 22.7488 128.497 21.0396 C 129.496 19.3041 130.864 17.9762 132.599 17.0559 C 134.335 16.1355 136.281 15.6754 138.437 15.6754 C 140.593 15.6754 142.539 16.1355 144.274 17.0559 C 146.01 17.9762 147.377 19.3041 148.376 21.0396 C 149.376 22.7488 149.875 24.7341 149.875 26.9955 C 149.875 29.2568 149.362 31.2553 148.337 32.9908 C 147.338 34.7 145.957 36.0147 144.195 36.935 C 142.46 37.8554 140.514 38.3155 138.358 38.3155 Z M 138.358 32.478 C 139.646 32.478 140.738 32.0047 141.632 31.0581 C 142.552 30.1114 143.012 28.7572 143.012 26.9955 C 143.012 25.2337 142.565 23.8795 141.671 22.9329 C 140.803 21.9862 139.725 21.5129 138.437 21.5129 C 137.122 21.5129 136.031 21.9862 135.163 22.9329 C 134.295 23.8532 133.861 25.2074 133.861 26.9955 C 133.861 28.7572 134.282 30.1114 135.124 31.0581 C 135.991 32.0047 137.069 32.478 138.358 32.478 Z" stroke-linecap="round" /></g><g transform="matrix(1 0 0 1 -40 -12)"  ><circle style="stroke: none; stroke-width: 1; stroke-dasharray: none; stroke-linecap: butt; stroke-dashoffset: 0; stroke-linejoin: miter; stroke-miterlimit: 4; fill: rgb(131,83,226); fill-rule: nonzero; opacity: 1;"  cx="0" cy="0" r="10" /></g><g transform="matrix(1 0 0 1 -40 12)"  ><circle style="stroke: none; stroke-width: 1; stroke-dasharray: none; stroke-linecap: butt; stroke-dashoffset: 0; stroke-linejoin: miter; stroke-miterlimit: 4; fill: rgb(64,105,229); fill-rule: nonzero; opacity: 1;"  cx="0" cy="0" r="10" /></g><g transform="matrix(1 0 0 1 -64.5 0)"  ><path style="stroke: none; stroke-width: 1; stroke-dasharray: none; stroke-linecap: butt; stroke-dashoffset: 0; stroke-linejoin: miter; stroke-miterlimit: 4; fill: rgb(0,189,214); fill-rule: nonzero; opacity: 1;"  transform=" translate(-13.5, -26)" d="M 5 21 C 5 11.6112 12.6112 4 22 4 L 22 31 C 22 40.3888 14.3888 48 5 48 L 5 21 Z" stroke-linecap="round" /></g></g></g></svg>